<svg xmlns="http://www.w3.org/2000/svg" viewBox="0 0 746.43 1000"><defs><style>.cls-1,.cls-2,.cls-3{fill:#fff;}.cls-2{fill-rule:evenodd;}.cls-3{font-size:77.73px;font-family:Arial-BoldMT, Arial;font-weight:700;}</style></defs><g id="Layer_2" data-name="Layer 2"><g id="Ebene_1" data-name="Ebene 1"><path class="cls-1" d="M127.83,277.34V50.45a24.32,24.32,0,0,1,24.3-24.29H594.31A24.32,24.32,0,0,1,618.6,50.45V136a16.89,16.89,0,0,1,12.92.63,20,20,0,0,1,3.28,0V50.45A40.53,40.53,0,0,0,594.31,10H152.13a40.53,40.53,0,0,0-40.49,40.49V277.07a22.36,22.36,0,0,1,4.65-1.1A25.83,25.83,0,0,1,127.83,277.34Z"/><path class="cls-1" d="M185.94,891.83c-4.66-2.93-12.69-4.4-16.38-8.29.61.64-.12.28-.15.09-1.48,1,1.15,15,1.27,17.4.41,8.23-.58,16.41-1.85,24.53,6.51-.59,11.75-5.89,17.32-8.73,4.78-2.46,15.16-9.68,9.77-15.42C192.52,897.81,189.78,894.25,185.94,891.83Z"/><path class="cls-1" d="M618.6,610.06V834.27H127.83V340a26.93,26.93,0,0,1-6.77-.08c-.61-.08-1.19-.2-1.78-.3a16,16,0,0,1-2.4.19,36.08,36.08,0,0,1-5.24.59v619.1A40.53,40.53,0,0,0,152.13,1000H594.31a40.53,40.53,0,0,0,40.49-40.49v-345A44,44,0,0,1,618.6,610.06ZM159.21,953.2c-14.9-4.16-6.32-26.73-4.4-36.52,1.42-7.22,2.85-13.23,2.19-21-.3-3.49-4.8-17.94.52-17.94,0-6-2.25-9.53-.39-15.63,1.13-3.7,13.86,4.19,17,5.65,13.53,6.4,27.29,15.48,33.83,29.77C222,928.42,179.61,942.23,159.21,953.2Zm75.64-51c-1.45,4.79-2.82,9.6-3.83,14.51-1.8,8.73-2.6,17.71-1.2,26.56.12.83.09.63,0,.17.78,6-2.37,10.3-8.72,9.9-5.38-.33-6.87-15.7-7.77-20.15,1.68-4.7.71-10.21,1.27-15.11.37-2.54,3.89-23.84,4.76-24.14,1.33-.48,3.45-12.06,4.85-13.7,2-2.3,6.58-6.58,7.56-1.11.9,5.09,2.83,8,3.22,13.09a4.71,4.71,0,0,0,1.69,4.11Q235.75,899.24,234.85,902.18Zm61,8c-1.3,7-1.86,13.53-3.65,20.49-.59,2.31-4.33,11.27-6.54,10.84.69,3.28-5.6,8.11-8.61,8.72-8.76,1.75-15.63-14.41-17.91-20.76-.56-1.58-5.67,9.34-6.12,11.36-.62,2.67-.39,6.42-2.22,8.91-1.35,1.81-.93,1.68-2.11,2.21-2.61-.55-2.44,1.71-5-.28-2.41-1.87-3.7-5.22-4.76-8-3.11-8-2.71-12,.54-19.87,6.47-15.73,13.2-31.34,19.37-47.19,5.67,2.58,11.51,6.32,13.6,12.55,1,3-.39,6.91-.82,6.86.32,1-.3,8.94-2.12,8.23.9,7.62-.67,15.25.85,22.85,10.11-6.86,11.23-21.39,12.7-32.37.67-5,2.52-9,3.67-13.82,1.76-7.39,3.58-4,8.24.06,3.84,3.36,6.79,5.82,5.54,11.61-.49,2.28-.92,5-2.9,6.51C297.21,902.86,296.51,906.52,295.84,910.2Zm62.69,29c-5.9,8.8-19.17,11-28.48,13.66-9.6,2.76-21.71.31-27.13-8.56-6.58-10.69-2.49-24.23,3.6-34.27,2.69-4.45,6.19-9.37,9.81-12.42a31.86,31.86,0,0,0,6.71-7.92c2.83-.73,4.17-3.75,5.49-5.16a10.12,10.12,0,0,0,3.79-3.7c1.8-2.61,3.7-1,5.25-3.58,4.61-7.77,13.73,5.7,14.83,9.86-1.84,4.26-2.19,5.85-.14,10,2.85,5.85,4.8,12.07,7.85,17.84C359.61,921.9,367.22,933.72,358.53,939.19Zm92.52-34.27c.2,6-1.47,11.42-1.51,17.21-.06,8.36-2.35,23.18-9.9,27.51h0c-8.5,5-8.53-10.2-8.15-15.54a98.83,98.83,0,0,1,2.29-14.42c.23-1,1.69-4.33.85-5.43-.62-.79-1.49-.9-1.85.37-13.1,11.13-31.83,23.19-41.3,2.09a41.58,41.58,0,0,0-4.17,11.12c-.77,3.29-.14,2.95-2.38,6.08-1.45,2-.64,5.47-2.32,6.88-2.85,4.14-8,22.59-13.26,8.17-4.5-12.21-.5-21.85,3.72-33.22,4.41-11.87,9-23.76,15.59-34.62,1.61-2.64,8.69-9.63,9.79-2.56.28,1.82,1.86,2,3.33,2.58,3.11,1.21,5,5.42,6,8.6s.26,8.53.26,12c0,7.71,8.67,1.22,11.09-.38,4.52-2.94,8.72-7.64,12.48-11.7,3.12-3.38,6.09-13.52,11.39-11,3.17,1.54,4.09,3.32,6.47,5.65,3.22,3.14,2.93,7.47,4.62,11.3l-2-.25A14.26,14.26,0,0,1,451.05,904.92Zm31-2.74c-1.45,4.79-2.82,9.6-3.83,14.51-1.8,8.73-2.59,17.71-1.19,26.56.11.83.08.63,0,.17.77,6-2.38,10.3-8.73,9.9-5.38-.33-6.87-15.7-7.76-20.15,1.67-4.7.7-10.21,1.26-15.11.37-2.54,3.89-23.84,4.76-24.14,1.34-.48,3.45-12.06,4.86-13.7,2-2.3,6.57-6.58,7.55-1.11.91,5.09,2.83,8,3.22,13.09a4.74,4.74,0,0,0,1.69,4.11Q483,899.24,482.06,902.18Zm95.11-4.24c-4.1,2.2-10.91.62-11.15,5.81-.19,4.11,14.1,1.26,17.27,1.17.37,2.19,2.91,7,6.13,6.63,2.26,5.24-4.38,8.94-8.5,10.83a20.61,20.61,0,0,1-10.46,1.33c-2.56-.39-5.42.43-8.08-.61a47.5,47.5,0,0,0-5.49,11.8c8.7,1.49,17.09-1.3,25.4-2.52,2.33-.35,5.13-2.57,6.81-.13.83,1.2,2.12,3.87,4,3.63,2.43,2.86,1.72,5.53-.22,8.36-5.75,8.44-19,7.54-27.88,8.84-11.77,1.71-20.14-1.44-22-13.32-1.32-8.56,1.17-12.8,3.51-19.92,1.3-4,3.19-7.68,4.61-11.59,1.13-3.14-2.2-7.71-2.71-11.47-.2-1.54-.42-2.85-.49-4-5.66,0-17.32.54-18.65,4.88-2.15,7-5.49,13.59-7.54,20.53-1.89,6.39-12,22.62-4,27.29,2.58,4.95-.38,9.21-6,9.21-4.9,0-7.84-7.15-8.44-11-3.08-16,5.11-30.87,10.24-45.71-3.43,0-6.73.86-10.14.86a30.6,30.6,0,0,0-5.7.43c-3.28.69-3.43-2.37-5.6-3-3.07-4.26-2.53-9.09-1.74-13.7.32-1.86,15.84-1.51,18.53-1.78,3.56-.41,8.14.36,9.62-3.07,2.23-.58,3.27-.84,5.07,1.23,8.8-.94,17.7-3.6,26.61-2.83,3.76.35,7.09,4.06,8.5,8,1.94-.5,3.9-1,5.73-1.59a97.11,97.11,0,0,1,18.09-3.93c1.86-.26,11.28-.88,11.2-1.72a13.5,13.5,0,0,0,6.34,5.9C601.66,895.66,584.85,893.81,577.17,897.94Z"/><path class="cls-1" d="M336.45,904.73a4.46,4.46,0,0,1-2.53-1.17c-2,1.87-4.07,3.71-6.13,5.53-5,4.45-7.73,9.06-11.09,14.75a19.51,19.51,0,0,0-3,9.33c3.1,3,7.92,2.51,11.81,1.89,8.4-1.33,14.49-4.32,21.36-8.4.64-.38,1.16-4.2,1.16-8.1-3.16-5.19-4.87-11-7.82-16.34C340,902.7,337.09,904.79,336.45,904.73Z"/><path class="cls-1" d="M169.41,883.63c.05,0,.09-.09.15-.09C169.43,883.54,169.4,883.58,169.41,883.63Z"/><path class="cls-2" d="M483.37,626.91c.52-1.18.9-2.07,1.29-3a26.07,26.07,0,0,1,2.25,1.44c1.3,1.05,2.48,2.25,3.81,3.25s1,1.69.2,2.78a17.64,17.64,0,0,0-2.25,3.78c-.69,1.62-1.56,1.72-2.2.24C485.27,632.65,484.38,629.72,483.37,626.91Z"/><path class="cls-2" d="M559.23,640c.09.43.5,1.19.28,1.47a36.85,36.85,0,0,1-3.87,4.31c-.39.36-1.81.37-2,.08a11.58,11.58,0,0,1-1.34-3.57c-.07-.32.68-1.08,1.17-1.2C555.18,640.64,556.93,640.39,559.23,640Z"/><path class="cls-2" d="M459.93,585.44c-.17.24-.45,1-1,1.28a10.17,10.17,0,0,1-2.94.59,2,2,0,0,1-.29-1.18,56.25,56.25,0,0,1,2.19-5.33c.55-1.11,1.19-.69,1.39.3C459.57,582.36,459.69,583.66,459.93,585.44Z"/><path class="cls-2" d="M477,396.89c0,2.78-.9,3.89-4.15,5.13-2.42.91-4.81,1.91-7.22,2.82a5.89,5.89,0,0,1-1.53.18,4.24,4.24,0,0,1,.19-1.58c2.12-3.78,4.72-7.17,8.68-9.19C475.58,392.9,476.94,393.86,477,396.89Z"/><path class="cls-2" d="M478.8,422.16c.26-3.49,2-6.24,3.27-5.59,1.58.82,2.71,2.49,4,3.79a54.13,54.13,0,0,1-5.57,3.28C480.19,423.8,479.15,422.48,478.8,422.16Z"/><path class="cls-2" d="M469,740.06c8.48,0,17-.19,25.44.05,6.46.19,11.18,3.89,14.81,8.92,3.16,4.38,6,9,9,13.46,2.66,4,3.83,8.51,4.56,13.13.5,3.12-1.12,5-4.21,4.77-5.09-.34-10.18-.89-15.23-1.63a79.13,79.13,0,0,1-21.34-6.42c-3.2-1.44-7.08-1.43-10.67-1.92-2.07-.29-3.22.94-3.26,2.92a43.35,43.35,0,0,0,.42,5.56q.76,6.51,1.63,13c.57,4.18-.65,5.69-4.82,5.3-6.89-.67-13.71-1.89-20-4.93a23.74,23.74,0,0,1-6-4.44c-2.88-2.81-5.77-3.76-10-3.26-6.69.79-13.54,1.1-20.19-1.37-6.85-2.55-7.37-2.16-10.24,4.53a7.87,7.87,0,0,1-8.23,4.73c-2.1-.31-2.67.39-2.36,2.46.41,2.7-.54,4.22-3,4.4a38,38,0,0,1-8.92-.16,12.12,12.12,0,0,1-8.06-5.15q-1.84-2.62-3.81-5.18c-2.27-2.93-2.6-6.17-.6-9.14,4.95-7.32,9.24-15.15,15.89-21.19.62-.56,1.4-.93,2-1.48.45-.39,1.12-1,1-1.41a2,2,0,0,0-1.36-1.19c-7.6-1.47-11.08-7.13-14.28-13.39-3.09-6-5.15-12.13-4.66-19,.25-3.46-1.3-4.38-4.54-3.09a10.29,10.29,0,0,1-7.1.57c-2-.62-3.13-1.91-2.79-3.91a33.83,33.83,0,0,1,2.08-8.07,70.25,70.25,0,0,1,5.2-8.94,8.07,8.07,0,0,1,2.45-2.64c3.07-1.82,4-4.47,3.66-7.83-.73-8.28,1.49-16.31,2.47-24.42.21-1.76,1.85-3.64,3.31-4.9,6.78-5.82,13.94-11.23,20.56-17.23,5.15-4.66,10.19-9.66,11.81-16.88.67-3,1.37-6,1.77-9,.26-2-1.59-2.48-3-3.18-4.33-2.17-8.66-4.33-13-6.54a11,11,0,0,1-1.78-1.35c-1-.8-2-2.38-3.23-1a8.05,8.05,0,0,0-1.56,4.14,4.77,4.77,0,0,0,1,2.57c2.29,4,2.74,8.28,2.36,12.73a8.64,8.64,0,0,1-.89,3.2,2.92,2.92,0,0,1-4.48,1.23c-1.28-.75-2.4-1.78-3.69-2.53-1.59-.94-2.4-.49-2.59,1.37a7.87,7.87,0,0,0,.1,2.22c.94,5.24-.12,10.23-1.94,15.07-1.21,3.24-3.11,3.75-6.18,2-.89-.5-1.83-.92-2.75-1.36-3.28-1.54-6.6-3-9.82-4.62-2.46-1.26-3.41-.84-3.54,1.93-.06,1.21,0,2.43-.05,3.64-.24,3.5-2.4,5.22-5.85,4.62a31.06,31.06,0,0,1-3.78-1c-4.36-1.35-8.77-2.58-13.07-4.13-12.56-4.54-19.84-14-24.08-26.24a2.76,2.76,0,0,1-.13-1.9c1.3-2.32,0-3.51-1.66-4.86-5.4-4.28-7-10.31-7.49-16.84-.34-4.82-.55-9.66-1.16-14.44-.21-1.73-1.88-2.51-2.24-5-.55-4.33,1.85-6.62,1.37-8.68-2-8.79-5.82-14.7-10.74-22.1-3.5-5.26-6.72-10.7-10.09-16-1.19-1.89-2.53-3.69-3.64-5.62a67.79,67.79,0,0,1-4-7.59A187.05,187.05,0,0,1,250.45,484a36.68,36.68,0,0,1-1.16-11.6c.38-3.8-.82-7.74-1.08-11.64-.53-7.73-4.24-14.42-6.8-21.49-.12-.34-.28-.79-.55-.94-3.65-2-8.21-6.8-10.62-9.78a148.43,148.43,0,0,0-13.14-14.42c-3.9-3.68-8.45-6.68-12.82-9.84-7.13-5.17-15.31-8-23.7-10.35-6.72-1.9-13.31-4.26-20-6.26-6.07-1.81-12.21-3.41-18.32-5.11-6.57-1.82-13-4.09-19.71-5.36-9.22-1.75-18.61-2.67-27.89-4.09-5-.76-9.89-1.84-14.84-2.77a8.86,8.86,0,0,0-2.46-.38c-1.1.13-1.51.88-.58,1.72a7.62,7.62,0,0,0,2.57,1.66c5,1.64,10,3.4,15.17,4.65,2.47.6,3.71,1.75,4.33,4,1,3.87,2,7.77,3.28,11.57a38.05,38.05,0,0,1,1.76,14.63c-.22,3.67-2.93,6-6.46,5a22.36,22.36,0,0,1-6.93-3.44c-6.36-4.57-12.4-9.62-18.87-14A222,222,0,0,0,50,382.5c-11.18-5.85-22.14-12.05-32-19.87-4.71-3.73-8.67-8.44-12.89-12.78a31.61,31.61,0,0,1-3.85-4.78c-.46-.7-.28-1.82-.38-2.76.93.13,2.09,0,2.76.45,2.46,1.83,4.76,3.89,7.13,5.84,3.43,2.81,7.54,2.52,10.18-1.11A15.25,15.25,0,0,1,28.76,342a165.59,165.59,0,0,1,38.93-8.7c7.87-.69,15.76-1.57,23.65-1.54a265,265,0,0,1,27.59,1.57c9.51,1,18.95,2.76,28.41,4.27q29,4.62,57.43,12.08c3.61,1,7.19.45,10.76-.58a13.83,13.83,0,0,1,3.91,0c-.88,1-1.56,2.57-2.69,3a30.64,30.64,0,0,1-17.24,2.15c-5.7-.93-11.31-2.38-17-3.6a6.91,6.91,0,0,0-1.91-.36,5.94,5.94,0,0,0-1.73.63c.32.6.48,1.47,1,1.75,5.49,3.15,10.73,6.69,17.09,8.15,8.07,1.86,16.34,3.29,23.64,7.58,3.29,1.94,6.55,3.93,9.83,5.89a5.42,5.42,0,0,0,1.2.71c6.6,2,10.31,7.35,14.12,12.53a13.43,13.43,0,0,0,1,1.36c1.16,1.2,2.12.93,2.86-.47a5.48,5.48,0,0,0,.38-1.05c3.26-12.36,6.36-24.74,6.85-37.62.14-3.71,1-7.42,1-11.11-.09-5-.78-10-1.22-15,0-.46-.36-1-.23-1.36a15.35,15.35,0,0,1,1.08-2.24c.68.5,1.75.87,2,1.53,1.11,3.17,2,6.41,2.94,9.63,2.71,9.18,3.68,18.58,4.12,28.13.57,12.37-2.15,23.94-6.68,35.33a214,214,0,0,0-6.65,20.5c-1,3.62-2.1,7.12-4.23,10.26-.38.56-.17,1.52-.23,2.29a5.14,5.14,0,0,1,1.59-.36,1.21,1.21,0,0,1,.89.75c.12,1.58,0,3.18.18,4.75a2.38,2.38,0,0,0,1.06,1.75c.46.17,1.42-.32,1.82-.8a10.92,10.92,0,0,0,2-3.28c2.17-6.75,4.19-13.55,6.33-20.31.44-1.4.47-3.78,2.65-3.2s1.09,2.76.71,4.11c-3.12,11.09-4.42,22.46-5.29,33.88-.42,5.55.13,11.17-.16,16.73-.36,6.77,1.87,13.07,3.05,19.54,1.14,6.31,2.88,12.52,4.48,18.74a15.68,15.68,0,0,0,4.41,7.89c1.64,1.55,2.27,4.15,3.47,6.21a78,78,0,0,0,5.21,8.44c3.45,4.5,6.79,9.21,10.94,13,6.72,6.16,13.92,11.84,22.62,15.18a4.51,4.51,0,0,1,1.84,1.19,6.9,6.9,0,0,1,.83,2c-.64.19-1.28.43-1.93.57-.45.09-.94,0-1.39.08a4.13,4.13,0,0,0-.94.47,3.21,3.21,0,0,0,.62.85c2.6,1.8,5,4,7.89,5.28a136.11,136.11,0,0,0,15.66,5.92,23.91,23.91,0,0,0,20-2.29,23.48,23.48,0,0,0,8.9-9.84c4.39-8.93,7.06-18.46,9-28.16.56-2.76.24-5.73.1-8.59,0-.57-1-1.35-1.64-1.59-7.66-2.68-15.33-5.32-23-7.86a7.85,7.85,0,0,0-3.28-.11c-4.83.51-7.71-1.14-10.06-5.36-3.55-6.38-2.68-13.23-2.3-20a34.3,34.3,0,0,1,1.75-7.28c.4-1.38,1.08-2.89,2.87-2.39s1.32,2.22,1.19,3.57c-.61,6.42-1,12.82.83,19.15s3.93,8,10.51,9a85.51,85.51,0,0,1,10.79,2.89c7.87,2.32,15.77,4.53,23.55,7.09,4.5,1.49,8.78,3.6,13.18,5.37,6.49,2.61,13,5.15,19.5,7.74,3,1.2,6.13,2.28,9.06,3.7A15.43,15.43,0,0,0,439,533c4.05-1,8.16-1.75,12.27-2.49a2.87,2.87,0,0,0,2.67-2.69,41,41,0,0,1,1.52-6.81c.35-1,1.55-2.38,2.44-2.44,1.71-.11,1.66,1.6,1.72,2.92.17,3.82.36,7.63.55,11.44.12,2.52,1.47,3.88,3.93,4.32,3.28.58,4.62,1.7,4.82,3.84a5.57,5.57,0,0,1-3.75,5.28,14,14,0,0,1-4.86.92c-2.94,0-3.36.21-2.54,3.17,1.54,5.56,3.11,11.13,5.06,16.57,3.14,8.79,6.73,17.4,12.19,25.08,2.26,3.18,4.7,6.25,7.07,9.35,3.22,4.22,6.4,8.48,9.71,12.63a38.07,38.07,0,0,0,19.68,13.18c5.89,1.66,10.77,3.6,16.81,4.71a2.2,2.2,0,0,0,1.11,0c.63-.24,2.49-1.89,3.09-2.22a7.59,7.59,0,0,0-1.29-1.25c-3.66-2.09-5.85-3.18-8.76-4.95-.73-.45-1.11-1.49-1.65-2.26a7.58,7.58,0,0,1,2.28-1.13c5.63-.63,11.33-.8,16.9-1.78a78.42,78.42,0,0,0,13-3.88,125,125,0,0,0,13.11-5.6c3.82-1.9,7.43-4.25,11.06-6.51.61-.37.85-1.33,1.25-2a9.75,9.75,0,0,0-2.18-.9c-4.42-.65-5.85-2.52-4.9-6.91A24.89,24.89,0,0,1,580,578.93a37.54,37.54,0,0,1,5-3.63c2.62-1.59,4.2-1.14,5.77,1.53.83,1.39,1.77,2.45,3.25,1,4.26-4.17,8.78-8.13,12.48-12.76,2.62-3.29,4.25-7.43,6-11.34,1.35-3,.54-4.15-2.82-4.67-2.23-.34-3.43-1.64-3.23-3.8a74,74,0,0,1,1.48-11c3.26-13.46,7.34-26.66,14.35-38.72,2.9-5,6.16-9.79,9.42-14.56,4.55-6.66,8.74-13.47,10.57-21.45a16.3,16.3,0,0,0,.09-3.21,25.09,25.09,0,0,0-3.14.19c-8.5,1.55-12.17,8.3-15.9,14.92-6.49,11.53-11.37,23.92-19,34.84-2.65,3.79-4.52,8.15-6.65,12.29a111.56,111.56,0,0,1-19.47,27.19c-.9.92-1.56,2.09-2.44,3a7.77,7.77,0,0,1-1.71,1.08c0-.67-.3-1.47,0-2,2.33-4.46,4.67-8.91,7.15-13.29,5.09-9,11.61-17.18,15.16-27,1.27-3.51,2.34-7.09,3.43-10.65a4.93,4.93,0,0,0-.14-1.77c-.61.31-1.48.45-1.8.95-2.79,4.4-5.45,8.88-8.24,13.28a24.22,24.22,0,0,1-2.55,2.93c.2-1.26.32-2.55.64-3.78.36-1.44.9-2.83,1.35-4.25.79-2.48,1.5-5,2.36-7.44q2.76-7.77,5.64-15.5c1.07-2.88,2.4-5.69,3.25-8.63,1-3.27,1.54-6.66,2.23-10,.61-2.91,1.14-5.83,1.74-8.75,1.54-7.56,3.71-15.07,4.44-22.71.46-4.71-1.5-9.55-4.91-13.33a3.66,3.66,0,0,0-1.76-1.32c-3.66-.52-5.4-3-6.63-6.1-.72-1.82-1.48-2.68-3.69-1.34-2,1.22-4.19.21-5.84-1.38-4.36-4.2-6.37-9.58-7.42-15.36-.72-4-1.66-7.87-4.77-10.78-2.1-2-3.62-2.23-6-.62-11.05,7.41-22.19,1.71-29.29-6.28-.5-.56-.36-1.68-.52-2.54a9,9,0,0,1,2.79-.23c3.14.76,6.21,1.83,9.35,2.53a10.24,10.24,0,0,0,3.83-.3c.44-.08.8-.64,1.19-1-.36-.36-.67-.86-1.11-1.05-1.11-.47-2.36-.66-3.42-1.21-8.73-4.6-15.15-11.17-18.41-20.74-.92-2.72-3.06-5-4.7-7.47-.2-.3-.79-.33-1.21-.49-.17.48-.56,1-.47,1.42.32,1.65.92,3.24,1.16,4.89.41,2.82-.73,3.7-3.33,2.66a8.86,8.86,0,0,1-2.89-1.67c-7-6.71-11.36-14.47-9.72-24.61a9.51,9.51,0,0,0,.06-3.32c-.47-2.26-2.22-3-4.18-1.82-4.83,2.94-10.28,3.67-15.69,4.71-9.57,1.84-19.42,2.55-28.3,7.3a48.23,48.23,0,0,0-11.92,9.61,9.13,9.13,0,0,1-1.73,1.15,6.88,6.88,0,0,1,.06-2.23c3-7.8,9.15-12.79,16-17,3.59-2.18,7.6-3.21,11.76-4.19,10.14-2.4,20.76-2.11,30.64-6.07,6.79-2.72,12.29-6.51,15.74-13.07,1.14-2.15,1.37-4.08-.06-6.27-3-4.56-6.41-8.23-12.07-9.67-4.58-1.16-8.94-3.2-13.34-5a19.91,19.91,0,0,1-4-2.55c-8.19-6-6.2-18.62,1.34-23.51,2.65-1.73,5.9-2.53,8.9-3.72,1-.41,2.13-.65,3.14-1.1,6.74-3,13.34-6.3,20.22-8.88,11-4.14,22.4-5.88,34-2.34a53.56,53.56,0,0,1,20.52,11.67c8.42,7.64,16.57,15.59,26,22,1.92,1.31,4.37,1.84,6.54,2.81a20.29,20.29,0,0,1,2.41,1.52c-.68.77-1.23,2-2.07,2.24a19.62,19.62,0,0,1-15.2-1.43c-9.64-5.11-19.13-10.5-28.72-15.7-8.25-4.47-16.79-8.13-26.27-9.06-4.81-.47-9.65-1.69-14.41-1.43a234.36,234.36,0,0,0-24.61,2.83c-5,.79-8.92,9.56-3.26,14.09,4.32,3.45,8.71,6.73,14.27,8a21.32,21.32,0,0,1,4.45,1.61A167.07,167.07,0,0,1,549.36,294a18.65,18.65,0,0,1,1.83,1.73c6.49,6.53,13.44,12.64,18.95,20.09a30.65,30.65,0,0,1,2.35,3.47c6.52,12,11.83,24.52,14.89,37.93a88.36,88.36,0,0,0,11,25.9,3.43,3.43,0,0,0,.64.92c1,.76,2,1.46,3,2.18a13.31,13.31,0,0,0,1.6-3.05c1.51-6.59,3.43-13,7.38-18.61.43-.61.78-1.28,1.24-1.87.93-1.22,1.75-3.07,3.7-2s1,2.78.43,4.25c-1.65,4.65-3.43,9.26-5,13.94-.69,2.13-1.21,4.69.68,6.34s4.09,0,5.93-.92c5-2.49,8.84-6.48,12.48-10.64,1.48-1.68,3-3.33,4.63-4.85,1.47-1.36,3.38-2.09,5.07-.68s1.29,3.47.28,5.13c-2.83,4.68-7,8.14-11.09,11.64-1.35,1.14-2.89,2.08-4.2,3.26-.5.45-.62,1.34-.91,2a6.15,6.15,0,0,0,2.48.21,40,40,0,0,0,6.41-2.76,67.76,67.76,0,0,1,23.26-7.64c5.73-.9,11.66-.56,17.48-.94,3.51-.22,7-.65,10.51-1.17,4.88-.73,9.72-1.74,14.6-2.44,11.12-1.58,21.3-5.32,30-12.65a9.12,9.12,0,0,1,2-1.46c5.19-2.35,6.68-6.87,7.19-12,.21-2.1-1.19-2.92-2.7-3.33a24.6,24.6,0,0,0-5.79-.83c-4.66-.11-9.33,0-14,0-4.08,0-8.16,0-12.24,0-1.44,0-3-.07-3.26-1.88s1.24-2.35,2.63-2.76,3.09-.72,4.59-1.22c1.88-.63,2.34-1.92,1.56-3.76-2.88-6.79-2.57-13.71-.17-20.46a163.35,163.35,0,0,1,7.29-17.26c2.74-5.6,6.3-10.8,9-16.43A66.91,66.91,0,0,0,729,269.53a76.78,76.78,0,0,0,1.89-10.43q1-8.33,1.47-16.69c.34-5.49.37-11,.65-16.48,0-.76.77-1.48,1.18-2.22.66.63,1.8,1.18,1.93,1.91,1,5.32,1.9,10.64,2.46,16,1.18,11.26-.68,22.31-3.11,33.22-1,4.26-3.27,8.24-5.05,12.31-1.24,2.81-2.65,5.55-3.94,8.34-3.29,7.11-6.53,14.23-9.81,21.33-2.32,5-2.48,10.31-2,15.65.28,3,1.75,4.25,4.67,3.7,8.51-1.6,16.67,0,24.79,2.35a2.78,2.78,0,0,1,2.28,3,33.49,33.49,0,0,1-6.87,20.28c-6.55,8.72-14.66,15.24-25.71,17.42-2.93.58-5.77,1.55-8.67,2.27a6.42,6.42,0,0,0-4.73,4,20.42,20.42,0,0,1-8,10.1,75.11,75.11,0,0,0-8.09,6.41c-3.49,3-3.48,6.92-2.36,10.82a91.15,91.15,0,0,0,3.84,9.9c2.54,6,5.16,12,7.77,17.94a6.44,6.44,0,0,1-.51,6.39c-1.48,2.38-2.56,5.08-4.38,7.14a40.92,40.92,0,0,1-6.85,5.6c-2.24,1.61-2.34,2,.11,3.24,2.28,1.17,2.64,3.19,2.19,5.24-.89,4-1.9,8-4.68,11.25-2.06,2.41-4.11,2.26-5.87-.29-1.3-1.9-3-3.53-4.35-5.41-.57-.8-1.19-2.34-.82-2.86a4.23,4.23,0,0,1,3-1.32,7.84,7.84,0,0,1,3.15,1c1.72.78,2.83.1,3.16-1.53a18.06,18.06,0,0,0,.39-5.28c-.15-1.58-1.33-.82-2.1-.38-3.57,2-7.11,4.09-10.66,6.13-2.11,1.21-4.22,2.41-6.35,3.57a6.45,6.45,0,0,0-3.4,5.08c-1,5.78-2.44,11.49-3.44,17.27-1.05,6-2.06,12.11-2.6,18.22-.89,10.23-2,20.37-5.48,30.13-1.7,4.83-2.73,9.92-4.64,14.66A32.67,32.67,0,0,1,630.82,571a104.66,104.66,0,0,0-7.69,8.06c-3.52,3.84-7.08,7.63-10.4,11.62-2.86,3.43-5.5,7.06-8.1,10.69-1.34,1.87-.89,3,1.26,3.83,1.14.41,2.36.53,3.53.84,11,2.94,22,5.85,33,8.86,1.75.48,3.13.66,4.57-.79,1.81-1.82,4-1.46,5.88-.12s3.59,1.06,5.25-.49c8.55-7.95,16-16.87,20.93-27.43a63.87,63.87,0,0,0,5.51-33.8c-.47-5.11-3-6.74-7.18-8.1-7.34-2.39-17-5.9-24.22-8.55a3.62,3.62,0,0,1-1.46-.79c-.45-.5-1.15-.86-.9-1.79.13-.45,1.1-.9,1.72-.94a34.07,34.07,0,0,1,5.18,1.14c6.77,1.67,13.55,3.32,20.3,5.08,5.42,1.41,9.37,4.27,10.33,10.34,2.49,15.69,1,30.67-7.47,44.49a113.75,113.75,0,0,1-15.45,19.42c-3.72,3.85-7.57,7.38-12.38,9.82-2,1-3.48,1.17-5.54-.38a18.8,18.8,0,0,0-7.59-3.31c-12.14-2.34-23.77-6.29-35.28-10.64-2.41-.91-4-.38-5.08,1.79a35,35,0,0,0-2.57,5.57c0,8.49-5,9.87-9.21,12.87a50.82,50.82,0,0,1-17.47,8c-1.49.38-3.06,2.26-3.7,3.81-3.36,8.24-9.48,13.94-16.7,18.61a10.07,10.07,0,0,1-5.07,1.19c-2.46,0-3.48-1.87-2.3-4a31.25,31.25,0,0,1,2.17-2.9,7.64,7.64,0,0,0,.66-1.38,8.55,8.55,0,0,0-1.38.59c-2.93,2-5.84,4-8.73,6-6.07,4.28-12.79,4-19.63,2.84-2.85-.49-5.7-1-8.49-1.71-5.4-1.41-10.89-2.62-16.07-4.62-3.3-1.26-6.19-3.68-9.1-5.79-2.07-1.5-3.19-1.34-3.74,1.15-1,4.42-2.5,8.37-5.79,11.84-2.28,2.41-3.52,5.9-4.87,9.06a15.85,15.85,0,0,1-7.24,8.15c-2.87,1.52-5.93,2.69-8.89,4.06-6.83,3.18-13.62,6.45-20.49,9.56-4.42,2-8.93,3.78-13.4,5.66a15.73,15.73,0,0,0-2.54,1.14,1.71,1.71,0,0,0-.49,2.83c1.2,1.42,2.32,2.93,3.64,4.23a149.52,149.52,0,0,1,17,20c1.87,2.64,4.54,4.69,6.7,7.13a13,13,0,0,1,2.46,4,2.37,2.37,0,0,1-2.46,3.39,9.63,9.63,0,0,1-4.26-1.07,33.35,33.35,0,0,1-10.87-10.25c-5.74-8.14-11.91-16-17.88-24-1.55-2.08-3.66-2.25-6-2.13-3,.15-5.92.06-8.88.14-.7,0-1.79.13-2,.54a2.63,2.63,0,0,0,.17,2.27,94.87,94.87,0,0,0,6.61,9c7.52,8.55,15.36,16.79,24.6,23.56a67.85,67.85,0,0,0,7.93,5.23,11,11,0,0,0,5.07,1.11,17.13,17.13,0,0,1,11.77,4.24c2.84,2.47,6.43,4.09,9.69,6.08a6.13,6.13,0,0,1,1,.56c6.46,5.87,12.63,2.56,18.68-.74a26.15,26.15,0,0,0,5-4.06c1.48-1.38,1.3-2.43-.63-3.08-5.77-2-11.65-3.59-17.82-2.73-4,.54-7.9,1.38-11.83,2.17-2.72.55-4.15.09-4.63-1.67s.76-3.5,3.08-4.31A40.36,40.36,0,0,1,469,740.06Zm80.81-427.41h-2.06c-7.48,0-11.62,4.49-12,12-.36,6.25,2.8,10.9,5.92,15.59a31.14,31.14,0,0,0,12.75,11.35c4.13,1.94,10.16,1.65,13.8-1.2s4.68-7,2.92-12.1c-1.69-4.93-3.47-9.83-5.52-14.61-1.12-2.61-2.36-5.69-4.5-7.23C557.7,314,553.85,311.62,549.82,312.65ZM318,631.31a10,10,0,0,0,2.27.18,12.72,12.72,0,0,0,2.16-.78,7.65,7.65,0,0,0-.82-1.91c-.83-1-1.9-1.81-2.73-2.81-4.63-5.61-9.55-11-8.43-19.29a9.36,9.36,0,0,0-2.84-7.66c-3.2-3.36-6.34-6.79-9.61-10.08a9.9,9.9,0,0,0-2.77-1.41,22.81,22.81,0,0,0-1.34,3.2,3.51,3.51,0,0,0,.18,2.19c2.37,5.35,4.58,10.8,7.34,15.94a31.17,31.17,0,0,0,9.22,10c.44.32.64,1,.95,1.48a4.75,4.75,0,0,1-1.82-.08c-1.32-.67-2.54-1.54-3.84-2.28-.66-.38-1.39-.65-2.09-1a6.83,6.83,0,0,0,.4,2.55,93.49,93.49,0,0,0,5.48,7.76C311.88,630,314.41,632.26,318,631.31ZM667.64,398.72c4.46.93,7.2-1.4,8-4a3.5,3.5,0,0,0-.15-1.53c-3.74-.59-7.53-2-11.26-.32-2.1.93-3.93,1.6-5.88-.21-.28-.26-1.08,0-1.64.07a1.24,1.24,0,0,0,.41,1.64C660.45,395.84,663.8,397.16,667.64,398.72ZM483.37,626.91c1,2.81,1.9,5.74,3.1,8.53.64,1.48,1.51,1.38,2.2-.24a17.64,17.64,0,0,1,2.25-3.78c.84-1.09,1-1.85-.2-2.78s-2.51-2.2-3.81-3.25a26.07,26.07,0,0,0-2.25-1.44C484.27,624.84,483.89,625.73,483.37,626.91ZM559.23,640c-2.3.41-4.05.66-5.74,1.09-.49.12-1.24.88-1.17,1.2a11.58,11.58,0,0,0,1.34,3.57c.17.29,1.59.28,2-.08a36.85,36.85,0,0,0,3.87-4.31C559.73,641.17,559.32,640.41,559.23,640Zm-99.3-54.54c-.24-1.78-.36-3.08-.62-4.34-.2-1-.84-1.41-1.39-.3a56.25,56.25,0,0,0-2.19,5.33,2,2,0,0,0,.29,1.18,10.17,10.17,0,0,0,2.94-.59C459.48,586.49,459.76,585.68,459.93,585.44Z"/><path class="cls-2" d="M463.83,59.55c5,.47,10.06.61,15,1.5,9,1.62,16.8,6.18,23.85,11.69,8.43,6.58,16.41,13.75,24.44,20.84,8.24,7.27,15.81,15.31,25.54,20.76a77,77,0,0,0,23.64,9c6.78,1.26,13.47,3,20.26,4.22,6.14,1.06,12.35,1.74,18.55,2.35,11.67,1.17,23.38,2,35,3.31,7.2.84,14.34,2.26,21.46,3.66,7.75,1.53,14.41,5.4,20.84,9.86A50.53,50.53,0,0,1,707.67,164c2.22,4,4.31,8.05,6.36,12.12a9.82,9.82,0,0,1,1.23,3.69c.08,1-.56,2.11-.87,3.17-1-.43-2.52-.57-3.08-1.35q-5.73-8.07-11.11-16.37a27.31,27.31,0,0,0-10-9.57c-3.28-1.78-6.48-3.7-9.63-5.7a38.91,38.91,0,0,0-14.9-5.35,286,286,0,0,0-42.57-3.56c-9.82-.12-19.62-1.87-29.43-2.84a46.18,46.18,0,0,0-4.71-.06c-5.4,0-10.8,0-16.2,0-1,0-2-.28-3.06-.26A160.23,160.23,0,0,1,537,134.82a11.1,11.1,0,0,0-2.49-.27,61.11,61.11,0,0,1-29.53-6.14,109.07,109.07,0,0,0-13-5.16c-2.87-1-6-1.22-8.94-1.91-2.41-.56-4.81-1.2-7.16-2-2.72-.92-5.29-2.43-8.07-3-8.76-1.83-17.54-3.73-26.4-4.86a141.72,141.72,0,0,0-37.09-.3c-7.72,1-15.31,3.24-22.85,5.34-2.88.81-5.37,3-8.15,4.24C368.58,123,363.78,125,359,127a43.21,43.21,0,0,0-15.48,10.62,13.38,13.38,0,0,1-3.13,2.24c-.28.16-1.13,0-1.22-.26a2.14,2.14,0,0,1,.08-1.49,2.55,2.55,0,0,1,.93-1c3.77-2.39,6.28-6,9.27-9.2,7.07-7.56,14.15-15.15,21.7-22.22a265.65,265.65,0,0,1,24-20.49c11-8.06,22.68-15.29,35.78-19.36C441.56,62.53,452.32,59,463.83,59.55Z"/><path class="cls-2" d="M718.46,197.23c.33,9.7-1.48,19.61-4.06,29.51-2.76,10.63-4.59,21.53-9.31,31.56-3.54,7.5-7.11,15-11.08,22.28-4.38,8-9.06,15.87-13.94,23.58-4.59,7.25-9.57,14.26-16,20-2.54,2.28-5,4.69-7.61,6.85-.7.57-2,.44-3,.63,0-1-.33-2.21.06-3.08a24.87,24.87,0,0,1,2.44-3.38c.66-1,1.16-2.25-.35-2.79-1.69-.61-2.92-1.32-3.42-3.25a9.05,9.05,0,0,1,.68-7c1.35-2.34,2.86-4.59,4.33-6.86,4.3-6.65,8.67-13.25,12.91-19.93,2.9-4.56,5.91-9.08,8.36-13.87s4.1-9.79,6.22-14.66C689.46,245.89,694.35,235,699,224a30.27,30.27,0,0,0,1.41-6.19,16.11,16.11,0,0,1,.13-2.23c1.87-5,.49-9.74-.81-14.53s-2.4-9.36-3.73-14c-2.11-7.38-6.9-13.07-11.81-18.74-5.52-6.37-12.69-10.05-20.3-13-4.76-1.82-9.78-3-14.64-4.55a9.28,9.28,0,0,1-2.36-1.78,10.3,10.3,0,0,1,2.55-1.1c2.4-.31,4.82-.45,7.24-.58,5.91-.32,11.37,1.36,16.81,3.51,11,4.37,17.9,13.09,24.05,22.56a55.54,55.54,0,0,1,8.22,22.66,101.09,101.09,0,0,0,2.78,11.71c.21.77,1.07,1.36,1.64,2,.8-.68,2-1.22,2.32-2.08a24.54,24.54,0,0,0,1.3-6c.34-3.89.41-7.8.66-11.71a14.8,14.8,0,0,1,.59-3.57c.18-.57.9-1.36,1.38-1.36a2.23,2.23,0,0,1,1.53,1.26,7.59,7.59,0,0,1,.44,2.73C718.5,191.63,718.46,194.15,718.46,197.23Z"/><path class="cls-2" d="M306.85,404c5.17-.31,9.41,1.83,13,5.86a69.53,69.53,0,0,1,9.05,13.73c5,9.37,10,18.77,15.21,28a31.79,31.79,0,0,0,5.55,6.58c1.57,1.55,3.25,1.14,3.44-1,.39-4.23,2.56-8.35.53-12.8-1.28-2.8.29-5.56,1.83-7.86,1.86-2.77,9.88-11.44,16-12.46,4.43-1.64,7.8.39,8,5.08.46,10.62.65,21.26-1.68,31.69a57.69,57.69,0,0,1-12.43,25.37c-2.48,2.89-4.88,5.87-7.56,8.57a26.5,26.5,0,0,1-5.78,4.3,5.61,5.61,0,0,1-3.72.31c-1.42-.33-1.77-2.27-.55-2.76,3.62-1.48,5-5,7.18-7.65,4.43-5.51,8.58-11.28,11.15-18a6,6,0,0,0,.6-2.62A2.08,2.08,0,0,0,365,467.2c-12.11,2.82-21.44-1.65-28.5-11.23a169.65,169.65,0,0,1-9.73-15.65c-4.17-7.15-8-14.51-12.33-21.59-1.19-2-3.37-3.47-5.4-4.7a7,7,0,0,0-4.48-.61C301.11,414.05,302.43,404.28,306.85,404Z"/><path class="cls-2" d="M.52,323.49c-.2-.94-.73-1.93-.43-2.33,3-4.13,5.43-9.18,9.41-12,10.78-7.68,22.24-14.39,35.12-18.18,7.51-2.21,14.93-4.78,22.53-6.62,6.76-1.64,13.73-2.47,20.6-3.71,4.11-.75,8.23-1.54,12.33-2.4,6.29-1.34,12.54-2.87,18.84-4.11,7.67-1.5,15.4-2.69,23.07-4.21a112.94,112.94,0,0,0,13.85-3.43c6.18-2.05,12.52-4,18.2-7.08,9.91-5.37,19.52-11.34,29-17.48,8.43-5.48,16.67-11.31,24.67-17.4,6.14-4.67,11.77-10,17.66-15,1.92-1.63,4-3.08,5.91-4.7,5.78-4.84,11.59-9.65,17.27-14.61,4.66-4.07,10.1-6.66,15.77-8.86.65-.26,1.55.09,2.34.16-.38.75-.57,1.74-1.16,2.21-2.71,2.14-5.64,4-8.28,6.21s-5,4.69-7.51,7c-3.2,3-6.36,6-9.61,9-4.41,4-9.1,7.67-13.3,11.86-12.42,12.38-26.53,22.52-41.32,31.8-5.76,3.62-11.37,7.5-17.24,10.93a144.76,144.76,0,0,1-22.63,10.83c-13.35,5-27.34,6.52-41.07,9.5-7.55,1.64-15.09,3.34-22.66,4.88-6.12,1.24-12.26,2.4-18.42,3.38A182.63,182.63,0,0,0,43,299.87c-7.46,3-14.53,7.14-21.58,11.1-6.5,3.65-12.74,7.74-19.1,11.63C1.9,322.84,1.47,323,.52,323.49Z"/><path class="cls-2" d="M473.1,420.17a11.8,11.8,0,0,1,3.09-9.64,3,3,0,0,0,.85-1.41c.08-.86.16-2-.32-2.53a2.62,2.62,0,0,0-2.43-.31c-2.85,1.38-5.59,3-8.35,4.54-.81.45-1.56,1-2.34,1.54-1.72,1.16-3.57,2.57-5.62,1.16s-1-3.7-.65-5.67A25,25,0,0,1,468.38,391c1.42-1,3.22-2,4.83-2,3.75,0,6-2,8.28-4.48,3-3.22,6-6.37,9-9.59,2.35-2.53,2.17-2.86.72-6.09a22.15,22.15,0,0,1-1.84-6.94,94.13,94.13,0,0,1,0-10.08c0-1.36.34-2.74,2.12-2.7s1.74,1.38,1.85,2.63c.17,1.94.38,3.89.55,5.83a13.76,13.76,0,0,0,3.88,8.47c3.28,3.45,3.62,5.65,1.13,9.75a48.1,48.1,0,0,1-4.53,6c-1.32,1.56-2.88,2.93-4.33,4.38a15.59,15.59,0,0,0-4.59,11.06c-.37,10.83,3.93,19.93,10.29,28.25a22.66,22.66,0,0,0,4.41,3.84c4.1,3.14,6.63,6.63,4.74,12.23a38.93,38.93,0,0,1-8.81,15c-2.85,2.93-5.25,6.27-7.87,9.42-4,4.79-7.87,9.66-12,14.32a96.26,96.26,0,0,0-11.68,16.32,13.79,13.79,0,0,1-2.61,2.56c-.17-1.24-.68-2.55-.43-3.7,2-9.53,4.51-18.92,10.51-26.88,2.46-3.27,5.07-6.44,7.81-9.48,4.86-5.41,9.89-10.65,14.79-16,2.47-2.7,2.63-4.46.66-7.55-2.11-3.29-4.34-6.51-6.53-9.75-.86-1.26-1.9-1.28-2.65,0a46.56,46.56,0,0,0-2.86,5.69c-1.13,2.76-3.4,3.47-5,1.13C475.49,428.91,472.11,425.32,473.1,420.17ZM477,396.89c0-3-1.38-4-4-2.64-4,2-6.56,5.41-8.68,9.19a4.24,4.24,0,0,0-.19,1.58,5.89,5.89,0,0,0,1.53-.18c2.41-.91,4.8-1.91,7.22-2.82C476.06,400.78,477,399.67,477,396.89Zm1.84,25.27c.35.32,1.39,1.64,1.74,1.48a54.13,54.13,0,0,0,5.57-3.28c-1.33-1.3-2.46-3-4-3.79C480.82,415.92,479.06,418.67,478.8,422.16Z"/><path class="cls-2" d="M393.42,364.54q.45,10.05.91,20.09c.1,2.32.21,4.65.34,7,.36,6.69,1,13.39,1,20.08a25.88,25.88,0,0,1-2.28,9.38c-.89,2.16-.41,3.12,1.42,3.93,3.15,1.41,6.38,2.66,9.45,4.22,6.39,3.25,12.71,6.67,19.06,10a15.16,15.16,0,0,0,1.72.94,9,9,0,0,0,1.81.31,8.93,8.93,0,0,0,.23-2c-.32-2.85-1-5.68-1.05-8.53a52.79,52.79,0,0,1,6.14-25.85,74.46,74.46,0,0,0,7.78-26.67c0-.37,0-.84.16-1.1.79-1,1.53-2.61,2.54-2.84,1.65-.36,1.87,1.42,2.08,2.71,1.69,10.49,1.89,20.74-1.38,31.2-2.59,8.28-3.48,17.12-4.92,25.74-.5,3-.59,7.81-.85,10.87,3.72,4.71,30.63,17.44,33.41,19,.62.35,1.71,1,1.44,1.77-.64.93-1.57.36-2.35.34-5-.18-38.55-16.79-42.79-18.81-9.95-4.73-19.7-9.87-29.6-14.69-6-2.94-12.21-5.59-18.34-8.33-1.2-.53-2.49-1.15-1.8-2.55.32-.64,1.92-1.11,2.79-.92a49.67,49.67,0,0,1,5.81,2,5.81,5.81,0,0,0,1,.14,2.91,2.91,0,0,0-.07-1c-2.26-5.29-1.2-10.86-1.38-16.32a29.9,29.9,0,0,0-.64-6.29c-1.56-6.15-3.8-12.15-4.93-18.37-1.72-9.42-2.76-19-4-28.46-.12-.92.57-1.95.88-2.93a10.37,10.37,0,0,1,1.83,2.55c2,6.32,3.79,12.69,5.76,19a17.49,17.49,0,0,0,1.89,3.28,22.36,22.36,0,0,0,2.26-3.2c1.34-2.85,3.69-5.4,2.84-9-.07-.28.43-.7.66-1.05.34.26.93.49,1,.79.19,1.19.2,2.4.28,3.6Z"/><path class="cls-2" d="M570,451.56c0-2.61-.1-5.23.06-7.83,0-.73.84-1.42,1.29-2.12.61.59,1.53,1.07,1.79,1.79,2.08,5.82,2.26,11.85,1.86,18-.2,3.06-.27,6.13-.47,9.19-.37,5.66-.54,11.36-1.29,17a29.45,29.45,0,0,1-2.88,8.71c-3.92,8-8.08,15.94-12.16,23.89-1.75,3.39-3.19,7-5.38,10.09-4.08,5.75-8.59,11.2-13,16.72-.45.57-1.35.77-2,1.14a6.8,6.8,0,0,1-.72-2.49,24.28,24.28,0,0,1,1.2-3.71c.8-2.55,1.64-5.11,2.35-7.7.54-2-.39-2.86-2.45-3A32.58,32.58,0,0,1,531,530c-5.1-1.62-7.71-5.52-8.06-10.67A56.58,56.58,0,0,1,524.47,501c.34-1.28.74-2.63,2.23-2.18a4.65,4.65,0,0,1,2.23,2.4,6.78,6.78,0,0,1,.17,2.76c0,3.24-.05,6.48,0,9.71a7.86,7.86,0,0,0,8.35,7.87A12.81,12.81,0,0,0,548.24,516c6.81-9.92,13.13-20.13,17-31.63a92.12,92.12,0,0,0,4.07-20.78c.39-4,.56-8,.83-12Z"/><path class="cls-2" d="M518.57,559.29a68.83,68.83,0,0,1-2.57,6.93,49.71,49.71,0,0,1-3.87,6.13c-2.83,4-10,6.14-14.23.52-3.18-4.24-4.34-8.54-3.18-13.56.56-2.44,2.32-3.16,4.33-1.82,1.25.83,2.33,2.81,4,1.47a16.89,16.89,0,0,0,4.35-5.14c.81-1.56.72-3.62.88-5.47s.79-3.35,2.75-3.67a3.48,3.48,0,0,1,4.06,2.29C516.41,551,517.41,555.12,518.57,559.29Z"/><path class="cls-2" d="M492.49,335.05c5.78-1.15,9.75,2.67,13.48,6.89,1.18,1.33,2,3.18.74,4.52-.69.71-2.77.58-4,.18-1.92-.63-3.63-1.88-5.47-2.76-6.48-3.13-14.87-1.49-20.34,3.91-.4.39-.7.94-1.16,1.19-1,.53-2.38,1.55-2.94,1.23-1.54-.89-.84-2.46-.12-3.68C476.51,340.05,482.47,334.32,492.49,335.05Z"/><path class="cls-2" d="M557.19,346.27c-4-.12-5.4-1.13-5.67-3.72-.33-3.06,1.63-6.75,4-7.29a2.34,2.34,0,0,1,1.8.24c.25.21.06,1.13-.11,1.68-.63,2-.09,3.36,1.81,3.83,1,.26,2.62,0,2.38,1.57a5.74,5.74,0,0,1-2,3.07A4.41,4.41,0,0,1,557.19,346.27Z"/><path class="cls-1" d="M298.62,388.76v-1.37c0-.42,0-.94,0-1.53s-.08-1.06-.11-1.68c0-1.17-.31-2.91-.52-4.64s-.58-3.65-1-5.52-.78-3.77-1.28-5.48a47.3,47.3,0,0,0-1.41-4.66,26.68,26.68,0,0,0-1.25-3.14c-.34-.74-.53-1.17-.53-1.17l-.1-.24a1.61,1.61,0,0,1,2.72-1.67l.91,1.12a27.55,27.55,0,0,1,2.25,3.06c.87,1.29,1.85,2.82,2.76,4.5s1.86,3.49,2.79,5.33,1.73,3.71,2.5,5.49,1.43,3.39,1.95,5.12c.26.83.51,1.59.72,2.26s.3,1.11.41,1.54c.23.84.35,1.31.35,1.31a5.69,5.69,0,1,1-11,2.91,6.2,6.2,0,0,1-.19-1.4Z"/><path class="cls-1" d="M322,390.94l1.52-.46c.45-.14,1.12-.31,1.68-.53s.87-.46,1.41-.7l.88-.4,1.17-.71,2.55-1.54C333,385.44,335,384.19,337,383c1-.61,2-1.26,3.08-1.8l3.1-1.62a26.23,26.23,0,0,1,3-1.32l2.72-1.09c.86-.3,1.7-.45,2.41-.65l1.86-.46,1.6-.4a1.61,1.61,0,0,1,1.1,3l-.24.12-1.37.67-1.55.76c-.58.31-1.27.58-2,1l-2.19,1.48a23.31,23.31,0,0,0-2.39,1.72l-2.44,2c-.83.65-1.62,1.49-2.44,2.23-1.62,1.5-3.26,3.14-4.8,4.65-.81.78-1.61,1.52-2.36,2.23l-1.11,1-1.37,1.07-2.53,1.83c-.68.42-1.18.66-1.63.92l-1.39.77a5.55,5.55,0,0,1-5.36-9.72,5.36,5.36,0,0,1,1.05-.45Z"/><path class="cls-1" d="M309.29,427.84s0,1.78-.11,4.45a9.21,9.21,0,0,0,.05,1.93c.06.6.12,1.23.19,1.88s.12,1.39.18,2.11.41,1.53.61,2.32.44,1.59.66,2.37.4,1.59.69,2.33c.62,1.49,1.19,2.89,1.69,4.08l1.68,4,.05.13a1.63,1.63,0,0,1-2.69,1.75l-3.1-3.28L306,448.52c-1.1-1.34-2.19-2.9-3.34-4.44-.56-.79-1.16-1.53-1.68-2.37s-.93-1.82-1.37-2.7l-1.27-2.62a15.81,15.81,0,0,1-.89-2.2L295.94,430l0-.05a6.88,6.88,0,1,1,13-4.56A7,7,0,0,1,309.29,427.84Z"/><path class="cls-1" d="M289.14,410.09l-1-.34-1.19-.39-1.81-.7c-.64-.25-1.42-.54-2-.83l-2-.91-4.19-2a66,66,0,0,0-7.72-3.13,16,16,0,0,0-2.54-.65l-1-.21-.31-.07a1.61,1.61,0,0,1,.17-3.17l1.17-.12a20.6,20.6,0,0,1,3.11-.16,71,71,0,0,1,9,.74l4.64.64,2.07.27c.7.11,1.16.11,1.66.15l1.29.1,1.25,0,1.09,0H291a5.49,5.49,0,1,1-1.84,10.69Z"/><path class="cls-1" d="M332.47,407.62l1.93,1c.51.22,1,.5,1.8.8l2.45.93,2.57,1a24.76,24.76,0,0,1,2.36,1.12l1,.58a4.93,4.93,0,0,1,.8.68l.66.66a1.38,1.38,0,0,1-1.15,2.33l-1.26-.16-.34,0a3.22,3.22,0,0,0-.36-.07l-.71-.07c-.48-.06-1.27,0-2,0l-2.53.11-2.67.12c-.82.05-1.85,0-2.65,0l-2.34-.14a4.65,4.65,0,0,1,.54-9.29,4.76,4.76,0,0,1,1.8.48Z"/><text class="cls-3" transform="translate(646.93 66.69)">®</text></g></g></svg>